<mxfile host="app.diagrams.net" modified="2024-04-15T04:22:18.325Z" agent="Mozilla/5.0 (Windows NT 10.0; Win64; x64; rv:124.0) Gecko/20100101 Firefox/124.0" version="24.2.5" etag="9lMSpCQ4ZYkTM1t6vdFj" type="github">
  <diagram name="Page-1" id="yzWPfD1aRKi8sed3EZdN">
    <mxGraphModel>
      <root>
        <mxCell id="0" />
        <mxCell id="1" parent="0" />
      </root>
    </mxGraphModel>
  </diagram>
</mxfile>
